Coordinates
version=1
nRows=19
nColumns=36
inDegrees=yes

Units are S.I. units (second, meters, Newtons, ...)
If the header above contains a line with 'inDegrees', this indicates whether rotational values are in degrees (yes) or radians (no).

endheader
time	pelvis_tilt	pelvis_list	pelvis_rotation	pelvis_tx	pelvis_ty	pelvis_tz	hip_flexion_r	hip_adduction_r	hip_rotation_r	knee_angle_r	knee_angle_r_beta	ankle_angle_r	subtalar_angle_r	mtp_angle_r	hip_flexion_l	hip_adduction_l	hip_rotation_l	knee_angle_l	knee_angle_l_beta	ankle_angle_l	subtalar_angle_l	mtp_angle_l	lumbar_extension	lumbar_bending	lumbar_rotation	arm_flex_r	arm_add_r	arm_rot_r	elbow_flex_r	pro_sup_r	arm_flex_l	arm_add_l	arm_rot_l	elbow_flex_l	pro_sup_l
      0.00000000	     -0.18675515	     -1.01448517	      1.36035371	      0.88111075	      0.80732594	      0.74631788	    -13.10333817	      5.66587961	      5.89451781	      1.09449488	      0.01910254	     11.20047606	     -4.65576171	     -6.65203955	     27.31548151	     -1.11365659	      4.56306593	      9.26879342	      0.16177096	      2.69796809	     -4.57297342	     -6.65203955	     -8.37631918	      1.69051480	      3.31476536	      7.78570158	    -14.33574779	     -2.74093015	     25.09017528	     88.82984449	      7.26417414	     -9.39301166	      4.41898975	     15.04339698	     87.09021697
      0.01666670	     -0.62001123	     -1.84323931	      1.02738052	      0.88837496	      0.80434966	      0.74046942	    -13.51356000	      6.38991985	      7.56509467	      0.70829293	      0.01236204	     11.49793575	     -4.97924111	     -6.66314666	     26.84438484	     -2.09050090	      6.89031546	      4.75816470	      0.08304564	      4.33714144	     -3.17191475	     -6.66314666	     -7.43676367	      2.74834929	      3.35570155	      7.86506518	    -14.88979670	     -2.86044811	     25.04142724	     88.87900872	      6.75347336	     -8.81745020	      4.44141996	     14.58764328	     87.34331701
      0.03333330	     -0.98246616	     -1.21566839	      0.92117280	      0.89241827	      0.80245042	      0.73840451	    -14.08626071	      5.53754333	      7.69016900	      0.63744080	      0.01112544	     11.92706813	     -5.47991800	     -7.27914945	     26.52879364	     -1.47843739	      7.80188635	      2.34580522	      0.04094202	      4.82316009	     -2.27986399	     -7.27914945	     -6.28961743	      2.17477946	      3.39170214	      7.85815128	    -14.91414587	     -2.89152516	     24.28185626	     90.37660580	      6.92401967	     -8.94979314	      4.34330154	     12.96082171	     93.25861046
      0.05000000	     -1.42099295	     -0.93168940	      0.76872586	      0.89420850	      0.79889846	      0.73733453	    -14.48691436	      4.97552895	      6.98634894	      0.55673647	      0.00971688	     13.30681388	     -4.72017927	     -7.44127868	     26.70520079	     -1.19999125	      8.47612557	      1.38564853	      0.02418413	      5.76061371	     -1.68318422	     -7.44127868	     -5.31432741	      1.98546398	      2.95832443	      8.29545051	    -15.22810534	     -0.09314335	     23.67182038	     88.88613411	      6.49256486	     -9.23865864	      5.88215230	     12.56657755	     91.99331158
      0.06666670	     -1.64127605	     -0.66620479	      0.73652267	      0.89576691	      0.79542046	      0.73576491	    -15.29289861	      4.54774430	      6.77841939	      0.50555141	      0.00882354	     14.30909958	     -4.63831136	     -7.44226256	     26.65902803	     -0.73372612	      8.83192808	      1.32425204	      0.02311256	      6.02867593	     -1.41674280	     -7.44226256	     -4.74307129	      1.70620543	      2.94661908	      8.28620065	    -15.16989025	     -0.07912426	     23.60707505	     88.99891227	      6.47467414	     -9.31052458	      5.78221849	     12.32656750	     92.10637040
      0.08333330	     -1.64457775	     -0.16910579	      0.69032774	      0.89869736	      0.79159414	      0.73329393	    -16.47192627	      3.82772781	      6.38399906	      0.55671398	      0.00971649	     15.00903188	     -4.37863004	     -7.44353171	     26.23890571	      0.02938696	      8.69774761	      1.85590850	      0.03239171	      5.50262782	     -1.25057298	     -7.44353171	     -4.29503304	      1.16501788	      2.91883559	      8.19914441	    -14.98138929	      0.04924809	     23.47403465	     89.19750497	      6.56835214	     -9.41281801	      5.69442030	     11.98720837	     92.31452710
      0.10000000	     -1.71222848	      0.40823260	      0.61902147	      0.90268394	      0.78792978	      0.73014164	    -17.65618850	      3.00815990	      6.01698247	      0.78680996	      0.01373242	     15.17078301	     -4.49029658	     -7.44436173	     25.93016434	      0.98487404	      8.21460405	      3.25092868	      0.05673941	      4.47889433	     -1.30149732	     -7.44436173	     -3.76116485	      0.55043873	      2.96595500	      7.92337229	    -14.76606857	      0.16283371	     23.33495712	     89.28935784	      6.60213780	     -9.53452124	      5.63174618	     11.90810721	     92.39734673
      0.11666670	     -1.73537985	      1.02748624	      0.59014600	      0.90699467	      0.78591466	      0.72730910	    -18.74237950	      2.18155391	      5.57319058	      1.45416104	      0.02537990	     14.79255085	     -4.73149752	     -7.44524263	     25.65217836	      2.05574226	      7.63347263	      5.22723788	      0.09123251	      3.17951559	     -1.44611142	     -7.44524263	     -3.22372948	     -0.15331221	      3.06330329	      7.51604487	    -14.51164046	      0.27340628	     23.07469440	     89.35097304	      6.60232686	     -9.64513410	      5.55757795	     11.88192547	     92.43796995
      0.13333330	     -1.74217989	      1.54047970	      0.63960181	      0.91057299	      0.78608674	      0.72556466	    -19.28231341	      1.54238375	      5.29408460	      3.06931459	      0.05356965	     13.62558900	     -5.90602323	     -7.44867380	     25.42296016	      3.03087287	      7.34698622	      7.30858613	      0.12755889	      1.66574584	     -2.10328822	     -7.44867380	     -2.69627523	     -0.73356356	      3.24843629	      7.27686319	    -14.21635904	      0.41477972	     21.89794551	     89.77462384	      6.86439786	     -9.61569224	      5.30051199	     11.22915198	     92.90353416
      0.15000000	     -1.93422833	      1.89008306	      0.88284992	      0.91327307	      0.78826245	      0.72498059	    -18.75733766	      1.11733693	      4.25879109	      6.05820154	      0.10573556	     12.18958150	     -6.38300083	     -7.45050512	     25.43641779	      3.79491777	      6.88974843	      9.32963985	      0.16283293	      0.56491446	     -2.15924006	     -7.45050512	     -2.28537811	     -1.10068994	      3.13516881	      6.62316211	    -13.91457208	      0.45022118	     21.88657595	     89.54782859	      6.60352758	     -9.83168242	      5.21083332	     11.95437771	     92.61271770
      0.16666670	     -1.56646635	      2.11307778	      1.23042325	      0.91526999	      0.79248274	      0.72484611	    -17.83988482	      0.75609540	      2.75353705	     10.56519225	      0.18439739	      9.50442360	     -7.11928831	     -7.45092725	     24.70017280	      4.34152373	      6.50641600	     11.06456189	      0.19311304	     -0.18737047	     -2.49082218	     -7.45092725	     -2.61075088	     -1.50785256	      2.82117721	      6.28614760	    -13.65312080	      0.44216188	     21.42677398	     89.62044157	      6.83837003	     -9.88056982	      5.17144002	     11.81443631	     92.69636077
      0.18333330	     -2.50489362	      1.98280016	      1.28633037	      0.91832595	      0.79509686	      0.72373182	    -14.34933244	      0.60522754	      2.57400733	     16.97365749	      0.29624621	      5.93826014	     -9.64390295	     -7.45368961	     25.46534748	      4.34607348	      6.04636419	     13.09186849	      0.22849621	     -0.27640157	     -3.03432484	     -7.45368961	     -1.16633581	     -1.44319266	      2.64302758	      5.96059383	    -13.24748413	      0.23113701	     19.83011402	     89.80563611	      6.77007072	     -9.87069771	      4.98910306	     11.29546241	     92.92501138
      0.20000000	     -2.44146922	      2.25770874	      1.28408283	      0.92366463	      0.79847279	      0.71996049	    -11.89024766	     -0.15486819	      1.65998037	     23.25524258	      0.40588055	      2.11319239	    -10.28504901	     -7.45500955	     24.77574720	      4.70364633	      5.55009689	     14.53694847	      0.25371761	      0.43807635	     -3.18504741	     -7.45500955	     -1.11206671	     -1.83536758	      2.44216566	      5.56860924	    -12.92698928	      0.15753843	     19.10421975	     90.02608855	      6.90686850	    -10.00432650	      4.90988123	     11.14089177	     93.17006611
      0.21666670	     -3.12467412	      2.54319337	      1.16355251	      0.93058049	      0.80056790	      0.71495860	     -8.62356299	     -0.97492676	      1.21102274	     29.36022148	      0.51243253	     -2.15857931	    -10.98641628	     -7.45777264	     24.76014818	      5.03649577	      4.87036360	     15.82623063	      0.27621983	      1.76129621	     -3.01876470	     -7.45777264	      0.22010304	     -2.26788149	      2.53677237	      4.80376077	    -12.57023818	     -0.00168302	     17.90926286	     90.45162747	      6.69997307	    -10.03723159	      4.78042076	     10.82246207	     93.59217926
      0.23333330	     -2.69944885	      2.96355594	      1.08196819	      0.93547836	      0.80265676	      0.71094911	     -6.59449514	     -1.99956961	      0.51501201	     35.04456515	      0.61164305	     -5.98060114	    -10.57786101	     -7.45845664	     23.26955797	      5.62991359	      4.55003194	     16.59915112	      0.28970984	      3.11686416	     -3.41024005	     -7.45845664	     -0.05189633	     -2.76548586	      2.25063938	      4.19906201	    -12.31912166	     -0.01165950	     17.64465897	     90.47116033	      6.49952858	    -10.15204764	      4.74937587	     10.84963434	     93.58077205
      0.25000000	     -4.00616239	      3.37060966	      0.44991478	      0.93814317	      0.80173196	      0.71006823	     -2.03253738	     -2.84568629	      1.05013332	     41.38146779	      0.72224286	     -9.59153669	    -11.78416264	     -7.46066949	     23.62660585	      5.91187632	      3.25174731	     17.33556490	      0.30256269	      4.75709566	     -3.13445814	     -7.46066949	      2.37036764	     -3.32768416	      2.66177372	      3.08602829	    -11.87946533	     -0.02420004	     16.30563808	     90.96393743	      5.91981891	    -10.17917851	      4.53113562	     10.44225896	     93.85514208
      0.26666670	     -4.47973327	      3.71322994	     -0.06496977	      0.93959165	      0.80303558	      0.70972078	      1.66819919	     -3.52863474	      1.28261614	     46.98690035	      0.82007612	    -12.06069767	    -12.35792720	     -7.46260296	     22.79005341	      6.26413443	      2.52363965	     17.40505283	      0.30377548	      5.98783453	     -3.39779383	     -7.46260296	      3.42233808	     -3.71236365	      2.53582608	      2.24397517	    -11.49597530	      0.03481187	     15.64554084	     91.38058284	      5.43526651	    -10.28856252	      4.32447301	     10.42636447	     93.98289676
      0.28333330	     -5.00019781	      3.88370400	     -0.58017313	      0.94125132	      0.80604957	      0.70927189	      5.45464531	     -3.87331126	      1.53000216	     51.82041948	      0.90443694	    -13.08980257	    -12.85265363	     -7.46466450	     21.88385802	      6.44866135	      2.04300534	     17.15037732	      0.29933055	      6.87940960	     -3.75616686	     -7.46466450	      4.48262350	     -3.85729728	      2.28553132	      1.42514837	    -11.17242106	      0.15904010	     14.94838059	     91.89519861	      4.95925787	    -10.39133627	      4.06391857	     10.58466588	     94.06500407
      0.30000000	     -4.69817104	      3.76520067	     -0.92462352	      0.94287595	      0.81052078	      0.70862293	      8.12513769	     -3.83334020	      1.48336260	     55.45628901	      0.96789483	    -13.06856837	    -13.29262252	     -7.46512410	     19.96857847	      6.43047800	      2.01054611	     16.61141703	      0.28992392	      7.51488578	     -4.00810559	     -7.46512410	      4.25143168	     -3.60236473	      1.73541942	      0.93182548	    -11.02714950	      0.18360381	     14.76981705	     91.94706437	      4.96235044	    -10.44656948	      4.01639841	     10.73918540	     94.01836366
